<?xml version="1.0" encoding="UTF-8"?><svg xmlns="http://www.w3.org/2000/svg" width="103.47mm" height="32.46mm" viewBox="0 0 293.3 92"><g id="a"/><g id="b"><g id="c"><g><path d="M0,70L29.9,0h11.7l29.7,70h-11.7L40.6,25.4c-.33-.8-.78-1.98-1.35-3.55-.57-1.57-1.18-3.25-1.85-5.05-.67-1.8-1.3-3.52-1.9-5.15-.6-1.63-1.07-2.92-1.4-3.85l2.7-.1c-.47,1.33-.98,2.8-1.55,4.4-.57,1.6-1.17,3.23-1.8,4.9-.63,1.67-1.25,3.25-1.85,4.75-.6,1.5-1.13,2.85-1.6,4.05L11.1,70H0Z" style="fill:#1d1d1b;"/><path d="M89.6,92V17.5h10.4v12l-1.6-.9c.47-1.93,1.75-3.82,3.85-5.65,2.1-1.83,4.7-3.35,7.8-4.55,3.1-1.2,6.35-1.8,9.75-1.8,5.4,0,10.13,1.17,14.2,3.5,4.06,2.33,7.27,5.53,9.6,9.6,2.33,4.07,3.5,8.73,3.5,14s-1.15,9.85-3.45,13.95c-2.3,4.1-5.5,7.33-9.6,9.7-4.1,2.37-8.75,3.55-13.95,3.55-3.67,0-7.13-.65-10.4-1.95-3.27-1.3-6-2.92-8.2-4.85-2.2-1.93-3.57-3.87-4.1-5.8l2.6-1.4v35.1h-10.4Zm28.8-30.6c3.67,0,6.9-.77,9.7-2.3,2.8-1.53,5.02-3.63,6.65-6.3,1.63-2.67,2.45-5.7,2.45-9.1s-.8-6.42-2.4-9.05c-1.6-2.63-3.8-4.72-6.6-6.25-2.8-1.53-6.07-2.3-9.8-2.3s-6.92,.75-9.75,2.25c-2.83,1.5-5.07,3.58-6.7,6.25-1.63,2.67-2.45,5.7-2.45,9.1s.82,6.43,2.45,9.1c1.63,2.67,3.87,4.77,6.7,6.3,2.83,1.54,6.08,2.3,9.75,2.3Z" style="fill:#1d1d1b;"/><path d="M192.8,71c-6,0-11.33-1.15-16-3.45-4.67-2.3-8.32-5.45-10.95-9.45-2.63-4-3.95-8.6-3.95-13.8,0-4.27,.77-8.1,2.3-11.5,1.53-3.4,3.65-6.33,6.35-8.8,2.7-2.47,5.88-4.37,9.55-5.7,3.67-1.33,7.6-2,11.8-2,3.8,0,7.35,.63,10.65,1.9,3.3,1.27,6.18,3.03,8.65,5.3,2.47,2.27,4.38,4.95,5.75,8.05,1.37,3.1,2.02,6.52,1.95,10.25l-.1,4.8h-48.5l-2.3-8.2h41.9l-1.5,1.3v-2.4c-.27-2.2-1.2-4.17-2.8-5.9-1.6-1.73-3.6-3.1-6-4.1-2.4-1-4.97-1.5-7.7-1.5-4,0-7.48,.63-10.45,1.9-2.97,1.27-5.27,3.22-6.9,5.85-1.63,2.63-2.45,5.98-2.45,10.05,0,3.67,.93,6.83,2.8,9.5,1.87,2.67,4.47,4.73,7.8,6.2,3.33,1.47,7.17,2.2,11.5,2.2,3.73,0,6.97-.53,9.7-1.6,2.73-1.07,5.33-2.53,7.8-4.4l4.9,7.5c-1.73,1.47-3.9,2.82-6.5,4.05-2.6,1.23-5.38,2.2-8.35,2.9-2.97,.7-5.95,1.05-8.95,1.05Z" style="fill:#1d1d1b;"/><path d="M233.8,70l23.1-27.4,6.5,6.9-16.4,20.5h-13.2Zm45.9,0l-19.5-22.6-1.7-2-24-27.9h14l18.1,22,1.7,2,25,28.5h-13.6Zm-10.8-25.2l-5.9-7.2,15.7-20.1h13.2l-23,27.3Z" style="fill:#1d1d1b;"/></g></g></g></svg>